Coordinates
version=1
nRows=9
nColumns=24
inDegrees=yes

Units are S.I. units (second, meters, Newtons, ...)
Angles are in degrees.

endheader
time	pelvis_tilt	pelvis_list	pelvis_rotation	pelvis_tx	pelvis_ty	pelvis_tz	hip_flexion_r	hip_adduction_r	hip_rotation_r	knee_angle_r	ankle_angle_r	subtalar_angle_r	mtp_angle_r	hip_flexion_l	hip_adduction_l	hip_rotation_l	knee_angle_l	ankle_angle_l	subtalar_angle_l	mtp_angle_l	lumbar_extension	lumbar_bending	lumbar_rotation
      4.32500000	    -11.43302606	      1.96815565	     -5.79635288	     -1.70545815	     -0.03073864	     -0.29093549	     -5.77534149	      0.90116718	      8.66876215	    -15.13198826	      5.76993090	      7.24561721	     20.66714317	     34.65925496	     -0.54551345	     -3.28087726	     -7.94643579	     -0.92594900	      1.05213641	      8.81219180	      8.84090980	     -1.31870936	     15.32676574
      4.33000000	    -11.49048494	      2.12462998	     -5.81720640	     -1.69842514	     -0.03172268	     -0.29165695	     -5.79464017	      0.61181766	      8.36740974	    -15.76873036	      5.54432080	      7.93920818	     20.93159163	     34.72601210	     -0.37348940	     -3.43766452	     -8.64541578	     -1.43399165	      0.96177357	      8.95625165	      9.08589933	     -1.46718591	     15.32998546
      4.33500000	    -11.55038256	      2.30698398	     -5.77356308	     -1.69137546	     -0.03263119	     -0.29247960	     -5.79715885	      0.28591477	      7.94369440	    -16.40639716	      5.20666703	      8.67659581	     21.37688250	     34.80601462	     -0.13394792	     -3.52280195	     -9.33352386	     -2.11723467	      0.77718655	      9.27003962	      9.33454953	     -1.65730502	     15.28672936
      4.34000000	    -11.61581442	      2.53863540	     -5.70141494	     -1.68437320	     -0.03343955	     -0.29331816	     -5.75385826	     -0.09137145	      7.50322872	    -17.09404393	      4.79131611	      9.40658632	     21.90985004	     34.89792791	      0.17105941	     -3.56911780	    -10.00481888	     -2.90288474	      0.57090452	      9.60224886	      9.58237824	     -1.90686912	     15.20897392
      4.34500000	    -11.67378459	      2.80397977	     -5.57117794	     -1.67736635	     -0.03410974	     -0.29418724	     -5.70429114	     -0.50617836	      6.95829365	    -17.76885593	      4.16256791	     10.05262907	     22.68500820	     34.97752798	      0.55012539	     -3.46060810	    -10.64701810	     -3.81527631	      0.27150939	     10.08044735	      9.82577307	     -2.21679467	     15.12062744
      4.35000000	    -11.75127965	      3.12287833	     -5.42791746	     -1.67047751	     -0.03469778	     -0.29506427	     -5.57526328	     -0.97936341	      6.45002378	    -18.54878206	      3.64520498	     10.86800183	     23.23721128	     35.12982766	      0.98895449	     -3.41171125	    -11.38358161	     -4.59141758	      0.13951152	     10.22559963	     10.06909537	     -2.59125766	     14.96354105
      4.35500000	    -11.81247151	      3.48017112	     -5.22009208	     -1.66359710	     -0.03513078	     -0.29598098	     -5.44048067	     -1.50055210	      5.78359463	    -19.32040326	      2.84713248	     11.57057993	     24.20210019	     35.23802688	      1.52840848	     -3.03032777	    -12.07189435	     -5.48273196	     -0.23273056	     10.36945719	     10.28879327	     -3.03151315	     14.81836917
      4.36000000	    -11.89364838	      3.86868117	     -5.00108181	     -1.65671610	     -0.03546480	     -0.29685852	     -5.23533521	     -2.06166605	      5.10211396	    -20.19876577	      2.13932257	     12.49215856	     24.72790947	     35.40776472	      2.09462450	     -2.79090195	    -12.85983680	     -6.13819738	     -0.25830034	     10.31061560	     10.53987642	     -3.51557064	     14.56635010
      4.36500000	    -11.96215082	      4.25569933	     -4.71349214	     -1.64992393	     -0.03568613	     -0.29786569	     -5.01323660	     -2.64495751	      4.24226846	    -21.09811429	      1.26068060	     13.45925315	     25.52356215	     35.57114644	      2.74037402	     -2.24887168	    -13.66927416	     -6.85848206	     -0.57402832	     10.04605747	     10.74483879	     -4.00587401	     14.37489439
